#!OML:ASF F:\VICON\USERDATA\INSTALL\rory3\rory3.ASF
:FULLY-SPECIFIED
:DEGREES
26
root 0.5615270455691765 17.847234629251695 -10.937121809904879 -0.853472030257943 -4.0840889867758285 -6.651883907152998
lfemur -26.6891539661883 -6.297293620992777 -10.419089238012004
ltibia 15.204041736676132
lfoot -7.205694600199881 6.335446772615604
ltoes -11.55677805581723
rfemur 5.9825534975388255 6.154525199719055 33.474800385861954
rtibia 24.520984377209455
rfoot -15.536735695963733 -5.367319771357949
rtoes -0.35209730172155185
lowerback 9.952354985702254 2.0099000877250583 5.912083294583382
upperback -0.10745117538890611 3.472829062344844 2.1469819275765927
thorax -5.343140951027242 1.5403574550790422 -2.092110573802752
lowerneck -15.410195043404755 -3.0718630246458236 -1.2359215652570446
upperneck 22.235293937203114 -3.91005706407211 -0.4652785108634651
head 9.561978030242521 -1.9816975820013494 -0.4096364328782623
lclavicle -1.3874280457803709e-15 -1.843698599987309e-15
lhumerus -36.599558920716 13.482299120474202 77.62142564436672
lradius 14.399160603546164
lwrist -5.261512966652161
lhand -27.00691061777763 24.75634684484043
lfingers 7.125019999999999
lthumb -0.3181788364928251 54.65598544987417
rclavicle -1.3874280459751505e-15 -1.843698600167722e-15
rhumerus -19.584952004609498 -12.063286656981177 -81.53982523080948
rradius 26.47931230441776
rwrist -0.80086173639073
rhand -18.76222178864376 23.94590848213538
rfingers 7.125019999999999
rthumb 7.580072354622961 -5.890660358562217
27
root 0.6081994574840431 17.796960406588042 -10.758761797214811 -1.0208564653652903 -4.1929698934036645 -6.424024961956899
lfemur -25.3660285827251 -5.7408980706538735 -11.060230675852447
ltibia 12.74384456493966
lfoot -7.137601796474211 5.358079332904385
ltoes -10.280100164425846
rfemur 7.8357430603693405 6.4993453046931045 32.97577805069831
rtibia 24.84788650590182
rfoot -15.411740041999956 -4.804067748341925
rtoes -2.2892886047084833
lowerback 9.553973671602154 2.1279274617072708 5.650999442914179
upperback -0.11262527445787299 3.604522256981694 1.934253487448283
thorax -5.247124640920882 1.6045545341039975 -2.017867243445526
lowerneck -15.293475841926869 -3.1663785023320203 -1.2627700025976485
upperneck 22.242210492589063 -4.14618051340451 -0.25819797101771824
head 9.510112701428808 -2.0455873228742387 -0.363517396332307
lclavicle -1.3874280457812933e-15 -1.8436985999864117e-15
lhumerus -37.06107152871528 13.939002209797469 77.07363526585084
lradius 13.54750430282563
lwrist -6.6803436747585625
lhand -25.672258172765588 26.518994287669116
lfingers 7.125019999999999
lthumb 0.7011406840729859 55.965387764604884
rclavicle -1.3874280459814285e-15 -1.8436986001719987e-15
rhumerus -20.08007761141063 -13.081668797794405 -81.35950362462329
rradius 26.248462328607054
rwrist -0.3378405628690686
rhand -18.671362939048393 23.736870245628975
rfingers 7.125019999999999
rthumb 7.4909969036024275 -6.270799573263076
28
root 0.6747831891268292 17.75823606628865 -9.890883583862669 -1.4685363896627643 -4.363959436100948 -5.976593152494159
lfemur -25.445597405142493 -3.6159898480267527 -13.188722560788722
ltibia 17.046346237882833
lfoot -5.998434701279266 3.0106586114713103
ltoes -8.520159633179963
rfemur 8.95495540889132 6.623236574805139 32.20099477361233
rtibia 27.411280186349217
rfoot -14.57705963837094 -3.773649847190454
rtoes -2.9304736714906836
lowerback 9.136501090109176 2.260411650164889 5.230990390300056
upperback -0.059809511813039534 3.6242176455664326 1.616537642260013
thorax -5.028086372670108 1.6538969432560664 -1.9903659434200824
lowerneck -15.06770527233186 -3.22059553219058 -1.193961371860044
upperneck 22.48305840777439 -4.344907286781959 -0.030617512679234585
head 9.551287735910366 -2.0926295666346064 -0.33611246673343487
lclavicle -1.3874280457725795e-15 -1.8436985999774534e-15
lhumerus -37.71149791117617 14.419796314622541 76.5237951064796
lradius 13.599502887630065
lwrist -6.896417234285607
lhand -24.292115071714694 26.965093815078543
lfingers 7.125019999999999
lthumb 1.9808316024449586 56.39601556291683
rclavicle -1.387428045973364e-15 -1.8436986001637208e-15
rhumerus -21.358836522786575 -14.23474312556685 -81.09763137379129
rradius 25.914153009111725
rwrist 0.24369685592687063
rhand -18.756669840906692 23.40473295360053
rfingers 7.125019999999999
rthumb 7.451212435077129 -6.62765395543864
29
root 0.7509701971973253 17.864380114366764 -9.41643812686304 -2.3420550611293405 -4.0943212297388785 -5.189151779299201
lfemur -24.50738819416881 -2.7372147718878432 -15.363481059923139
ltibia 22.105580672913646
lfoot -7.487948311103472 0.8363237353784405
ltoes -5.159334935935971
rfemur 8.596885285401479 6.156628874262514 30.82140122125214
rtibia 31.83043763872825
rfoot -12.174832223807385 -2.3964855211096894
rtoes -2.5933903115366572
lowerback 8.964566087333372 2.258177539969172 4.420527835966348
upperback -0.13777867415295228 3.4909724205710764 1.2245084466228384
thorax -5.0374129525231455 1.6287796610106478 -1.6979556399070794
lowerneck -14.94396562190048 -3.292742056126155 -1.3056603237456739
upperneck 22.85881623780491 -4.5394842299841685 0.19747808475446474
head 9.666408191742953 -2.1587147754080807 -0.26200964765708923
lclavicle -1.3874280457760294e-15 -1.8436985999795344e-15
lhumerus -38.34780324240556 14.259398237744715 76.37266432564539
lradius 14.50210138374431
lwrist -5.9436107375229295
lhand -25.391152856837376 25.149225243309942
lfingers 7.125019999999999
lthumb 1.2519172614827743 55.236129742786524
rclavicle -1.387428045975826e-15 -1.8436986001647037e-15
rhumerus -22.991385029716408 -15.1163988662535 -80.85082187261787
rradius 25.543590475748207
rwrist 0.8662268812914586
rhand -18.54588494485466 22.99682357519944
rfingers 7.125019999999999
rthumb 7.611763883578112 -7.072677342412489
